<svg xmlns="http://www.w3.org/2000/svg" width="64" height="64">
  <defs>
    <filter id="blur" width="200%" height="200%">
      <feGaussianBlur in="SourceAlpha" stdDeviation="3"/>
      <feOffset dy="4" result="offsetblur"/>
      <feComponentTransfer>
        <feFuncA slope=".05" type="linear"/>
      </feComponentTransfer>
      <feMerge>
        <feMergeNode/>
        <feMergeNode in="SourceGraphic"/>
      </feMerge>
    </filter>
    <style>
      @keyframes am-weather-rain{0%{stroke-dashoffset:0}to{stroke-dashoffset:-100}}.am-weather-rain-1,.am-weather-rain-2{-webkit-animation-name:am-weather-rain;-moz-animation-name:am-weather-rain;-ms-animation-name:am-weather-rain;animation-name:am-weather-rain;-webkit-animation-duration:8s;-moz-animation-duration:8s;-ms-animation-duration:8s;animation-duration:8s;-webkit-animation-timing-function:linear;-moz-animation-timing-function:linear;-ms-animation-timing-function:linear;animation-timing-function:linear;-webkit-animation-iteration-count:infinite;-moz-animation-iteration-count:infinite;-ms-animation-iteration-count:infinite;animation-iteration-count:infinite}.am-weather-rain-2{-webkit-animation-delay:.25s;-moz-animation-delay:.25s;-ms-animation-delay:.25s;animation-delay:.25s}
    </style>
  </defs>
  <g id="rainy-6" filter="url(#blur)">
    <g>
      <g>
        <path fill="#57A0EE" stroke="#fff" stroke-linejoin="round" stroke-width="1.2" d="M47.7 34.4c0-4.6-3.7-8.2-8.2-8.2-1 0-1.9.2-2.8.5-.3-3.4-3.1-6.2-6.6-6.2-3.7 0-6.7 3-6.7 6.7 0 .8.2 1.6.4 2.3-.3-.1-.7-.1-1-.1-3.7 0-6.7 3-6.7 6.7 0 3.6 2.9 6.6 6.5 6.7h17.2c4.4-.5 7.9-4 7.9-8.4z"/>
      </g>
    </g>
    <g transform="rotate(10 -247.3912 200.1658)">
      <line y2="8" fill="none" stroke="#91C0F8" stroke-dasharray="4 4" stroke-linecap="round" stroke-width="2" class="am-weather-rain-1" transform="translate(-4 1)"/>
      <line y2="8" fill="none" stroke="#91C0F8" stroke-dasharray="4 4" stroke-linecap="round" stroke-width="2" class="am-weather-rain-2" transform="translate(0 -1)"/>
      <line y2="8" fill="none" stroke="#91C0F8" stroke-dasharray="4 4" stroke-linecap="round" stroke-width="2" class="am-weather-rain-1" transform="translate(4)"/>
    </g>
  </g>
</svg>
